<svg xmlns="http://www.w3.org/2000/svg" width="960" height="600" viewBox="0 0 960 600"><rect width="960" height="600" fill="#e8e4d8"/><path d="M0 410L960 280V600H0Z" fill="#d5dace"/><circle cx="820" cy="65" r="215" fill="#ced6c7"/><path d="M0 80H960M0 84H960" stroke="#c3c8b9" stroke-width="2"/><g transform="translate(85 130) rotate(-8 165 175)"><rect x="7" y="10" width="300" height="350" rx="5" fill="#b1b8aa" opacity=".35"/><rect width="300" height="350" rx="5" fill="#f7f3e8"/><path d="M35 0V350" stroke="#b3bcaa"/><path d="M60 66H254M60 102H254M60 138H233M60 174H250M60 210H224M60 246H248M60 282H210" stroke="#bac5b4" stroke-width="3"/><path d="M60 36H166" stroke="#25453a" stroke-width="7"/></g><g transform="translate(870 410)"><circle r="59" fill="#b2baaa" opacity=".3"/><circle cy="-8" r="48" fill="#f5f1e4"/><circle cy="-8" r="35" fill="#687966"/><path d="M42 -27Q84 -30 72 7Q62 26 43 17" fill="none" stroke="#f5f1e4" stroke-width="14"/></g><g transform="translate(470 120)"><path d="M62 15V80C62 194 225 190 225 80V15" fill="none" stroke="#92a18e" stroke-width="13"/><path d="M62 64V84C62 175 225 175 225 84V64" fill="none" stroke="#28493e" stroke-width="22"/><path d="M142 157V235C142 367 318 363 318 236V211" fill="none" stroke="#28493e" stroke-width="20"/><circle cx="318" cy="203" r="41" fill="#8b9f8a"/><circle cx="318" cy="203" r="29" fill="#f4efdf"/><circle cx="318" cy="203" r="16" fill="#a3b09c"/><path d="M62 15L79 8M225 15L208 8" stroke="#28493e" stroke-width="17" stroke-linecap="round"/></g></svg>